<svg id="line" height="512" viewBox="0 0 64 64" width="512" xmlns="http://www.w3.org/2000/svg"><g fill="#c4a2fc"><path d="m48 60a3 3 0 0 0 3 3h6a3 3 0 0 0 3-3v-14h-12z"/><path d="m63 22a9 9 0 0 0 -16.875-4.359 1 1 0 0 0 1.749.97 7 7 0 1 1 6.126 10.389 1 1 0 0 0 -1 1v8h-2a3 3 0 0 0 -3 3v3h12v-3a3 3 0 0 0 -3-3h-2v-7.055a9.013 9.013 0 0 0 8-8.945z"/><circle cx="35" cy="22" r="4"/><path d="m29 60a3 3 0 0 0 3 3h6a3 3 0 0 0 3-3v-14h-12z"/><path d="m35 13a9 9 0 0 0 -1 17.941v7.059h-2a3 3 0 0 0 -3 3v3h12v-3a3 3 0 0 0 -3-3h-2v-7.059a9 9 0 0 0 -1-17.941zm0 15a6 6 0 1 1 6-6 6.007 6.007 0 0 1 -6 6z"/></g><path d="m35.446 1c-5.282 0-10.419 4.209-12 5.631-1.882-1.676-6.86-5.631-12-5.631-6.737 0-12.123 7.708-9.962 15.275a33.638 33.638 0 0 0 3.751 8.189c1.235 2.099 2.211 3.756 2.211 5.536 0 7.381 2.357 16 9 16a1 1 0 0 0 1-.929c.192-2.686 1.232-10.278 3.706-13.109a3.221 3.221 0 0 1 4.594 0c2.977 3.407 3.7 13.013 3.705 13.109a1 1 0 0 0 1 .929c6.643 0 9-8.619 9-16 0-1.78.975-3.437 2.21-5.536a33.6 33.6 0 0 0 3.751-8.189c2.165-7.598-3.256-15.275-9.966-15.275zm8.038 14.725a31.484 31.484 0 0 1 -3.552 7.725c-1.332 2.267-2.486 4.225-2.486 6.55 0 .545-.073 12.8-6.095 13.918-.28-2.7-1.282-10.044-4.1-13.272a5.214 5.214 0 0 0 -7.6 0c-2.821 3.228-3.822 10.569-4.1 13.272-6.033-1.118-6.105-13.373-6.105-13.918 0-2.325-1.153-4.283-2.487-6.55a31.484 31.484 0 0 1 -3.552-7.725c-1.857-6.501 2.837-12.725 8.039-12.725 4.272 0 8.675 3.4 10.454 4.939-3.24 2.049-6.658-.586-6.829-.721a1 1 0 0 0 -1.248 1.563c1.971 1.577 6.71 3.55 10.538-.272 1.533-1.532 6.517-5.509 11.085-5.509 5.217 0 9.89 6.245 8.038 12.725z" fill="#151a6a"/></svg>