<?xml version="1.0" encoding="UTF-8"?>
<svg xmlns="http://www.w3.org/2000/svg" xmlns:xlink="http://www.w3.org/1999/xlink" id="Gradient" viewBox="0 0 512 512" width="512" height="512"><defs><linearGradient id="linear-gradient" x1="256" y1="496" x2="256" y2="16" gradientUnits="userSpaceOnUse"><stop offset="0" stop-color="#27bfe4"/><stop offset="0.5" stop-color="#c075e7"/><stop offset="1" stop-color="#f0515d"/></linearGradient></defs><path d="M112,357.587V360c0,74.99,61.01,136,136,136h40c63.538,0,117.033-43.8,131.892-102.792,11.811-9.084,20.979-21.978,27.272-38.379,19.276-50.23,22.235-82.89,24.846-111.7,2.187-24.143,4.076-44.993,15.011-72.154C492.81,156.6,496,138.5,496,120c0-27.455-7.3-52.621-20.556-70.861C459.72,27.507,436.323,16.047,407.784,16h-.248c-31.78,0-56.544,9.982-74.637,17.276-8.923,3.6-16.63,6.7-20.864,6.724-4.3-.019-12.011-3.126-20.934-6.724C273.007,25.982,248.247,16,216.464,16h-.248c-28.539.047-51.936,11.507-67.66,33.14C135.3,67.38,128,92.546,128,120c0,18.494,3.19,36.6,8.979,50.971,10.935,27.161,12.825,48.011,15.011,72.154,1.65,18.2,3.513,38.651,9.747,64.1A71.963,71.963,0,0,1,64,240V184a8,8,0,0,0-8-8H48V112H64v8a8,8,0,0,0,8,8H88a24,24,0,0,0,0-48H72a8,8,0,0,0-8,8v8H40a8,8,0,0,0-8,8v72H24a8,8,0,0,0-8,8v56A120.2,120.2,0,0,0,112,357.587ZM80,96h8a8,8,0,0,1,0,16H80ZM288,480H248A120.136,120.136,0,0,1,128,360v-.273c2.645.175,5.311.273,8,.273s5.355-.1,8-.273V360A104.118,104.118,0,0,0,248,464h40A104.118,104.118,0,0,0,392,360V142.987a32.1,32.1,0,0,0,16,0V360A120.136,120.136,0,0,1,288,480ZM176.173,353.075c.223.586.438,1.167.663,1.754C195.252,402.819,232.738,408,248,408c12.1,0,24.376-6.5,33.676-17.843,13.572-16.549,18.89-40.384,14.226-63.758-3.643-18.259-10.546-62.647,4.018-80.4,3.309-4.034,7.26-6,12.08-6s8.771,1.961,12.08,6c14.564,17.757,7.661,62.145,4.018,80.4-4.664,23.374.654,47.209,14.226,63.758a49.985,49.985,0,0,0,20.906,15.458A88.032,88.032,0,0,1,288,448H248a88.1,88.1,0,0,1-88-88v-2.413A118.864,118.864,0,0,0,176.173,353.075ZM384,112a16,16,0,1,1,16,16A16.019,16.019,0,0,1,384,112Zm40,21.132a32,32,0,1,0-48,0v20.424a48,48,0,1,1,48,0ZM167.925,241.683c-2.205-24.345-4.288-47.34-16.105-76.688-5.041-12.52-7.818-28.5-7.82-45,0-24.1,6.211-45.925,17.5-61.451C174.273,40.971,192.692,32.039,216.241,32h.217c28.682,0,51.784,9.312,68.66,16.116C296,52.5,304.594,55.968,312.035,56c7.371-.032,15.966-3.5,26.847-7.884C355.759,41.312,378.857,32,407.542,32h.216c23.55.039,41.969,8.971,54.745,26.548C473.789,74.074,480,95.9,480,120c0,16.5-2.779,32.476-7.82,45-11.816,29.348-13.9,52.342-16.105,76.687-2.516,27.777-5.369,59.259-23.848,107.415a84.73,84.73,0,0,1-8.349,16.443c.074-1.839.122-3.684.122-5.54V171.33a64,64,0,1,0-48,0V360a87.555,87.555,0,0,1-5.7,31.143c-5.494-1.617-10.968-5.477-15.607-11.132-10.566-12.884-14.643-31.755-10.906-50.481,8.9-44.587,6.359-76.982-7.338-93.681C330.094,228.1,321.639,224,312,224s-18.094,4.1-24.451,11.849c-13.7,16.7-16.235,49.094-7.338,93.681,3.737,18.726-.34,37.6-10.906,50.481C263.056,387.63,255.29,392,248,392c-14.85,0-41.9-5.574-56.227-42.9-.307-.8-.6-1.6-.9-2.4A120.124,120.124,0,0,0,256,240V184a8,8,0,0,0-8-8h-8V104a8,8,0,0,0-8-8H208V88a8,8,0,0,0-8-8H184a24,24,0,0,0,0,48h16a8,8,0,0,0,8-8v-8h16v64h-8a8,8,0,0,0-8,8v56a71.98,71.98,0,0,1-31.645,59.6C171.145,277.19,169.51,259.175,167.925,241.683ZM192,96v16h-8a8,8,0,0,1,0-16ZM32,192H48v48a88,88,0,0,0,176,0V192h16v48a104,104,0,0,1-208,0Z" style="fill:url(#linear-gradient)"/></svg>
